<svg height="100%" width="100%" viewBox="0 0 46 46" fill="none" xmlns="http://www.w3.org/2000/svg">
    <path d="M23 46C35.7025 46 46 35.7025 46 23C46 10.2975 35.7025 0 23 0C10.2975 0 0 10.2975 0 23C0 35.7025 10.2975 46 23 46Z" fill="#F59E0B"/>
    <path d="M15.4756 39.3516C18.2667 39.3516 20.5293 32.0307 20.5293 23C20.5293 13.9693 18.2667 6.64844 15.4756 6.64844C12.6845 6.64844 10.4219 13.9693 10.4219 23C10.4219 32.0307 12.6845 39.3516 15.4756 39.3516Z" fill="white"/>
    <path d="M25.5156 32.2539C26.905 32.2539 28.0312 28.322 28.0312 23.4717C28.0312 18.6214 26.905 14.6895 25.5156 14.6895C24.1263 14.6895 23 18.6214 23 23.4717C23 28.322 24.1263 32.2539 25.5156 32.2539Z" fill="white"/>
    <path d="M33.0176 27.8965C34.4069 27.8965 35.5332 25.9255 35.5332 23.4941C35.5332 21.0628 34.4069 19.0918 33.0176 19.0918C31.6282 19.0918 30.502 21.0628 30.502 23.4941C30.502 25.9255 31.6282 27.8965 33.0176 27.8965Z" fill="white"/>
</svg>
